<?xml version="1.0" standalone="no"?>
<!DOCTYPE svg PUBLIC "-//W3C//DTD SVG 20010904//EN"
 "http://www.w3.org/TR/2001/REC-SVG-20010904/DTD/svg10.dtd">
<svg version="1.0" xmlns="http://www.w3.org/2000/svg"
 width="512.000000pt" height="512.000000pt" viewBox="0 0 512.000000 512.000000"
 preserveAspectRatio="xMidYMid meet">

<g transform="translate(0.000000,512.000000) scale(0.100000,-0.100000)"
fill="#000000" stroke="none">
<path d="M1763 5105 c-160 -43 -292 -170 -337 -324 -25 -86 -21 -206 10 -299
l26 -77 -723 -2015 c-716 -1992 -724 -2016 -724 -2090 0 -88 23 -145 84 -208
59 -61 122 -87 211 -87 72 0 94 7 570 179 272 98 599 216 726 261 128 46 242
88 253 95 52 27 46 107 -10 130 -28 12 -74 -3 -637 -205 -920 -331 -880 -317
-927 -309 -55 9 -110 65 -119 120 -6 35 2 68 60 230 37 104 68 191 70 193 2 2
21 -11 42 -28 22 -17 68 -44 103 -61 335 -158 728 11 851 369 33 95 33 277 0
372 -81 236 -293 406 -532 427 l-76 7 193 535 c105 294 196 547 202 562 l10
27 57 -34 c187 -113 391 -126 588 -38 210 95 356 323 356 558 0 321 -248 584
-581 617 l-26 3 45 125 c25 69 47 127 49 130 2 2 14 -2 26 -10 12 -7 132 -76
267 -153 135 -77 288 -168 341 -203 53 -35 107 -64 120 -64 54 0 89 53 69 104
-14 37 -274 203 -557 355 -164 89 -209 126 -251 204 -23 45 -27 63 -27 142 0
105 22 162 88 228 61 61 136 91 229 92 76 0 80 -2 205 -65 142 -72 453 -256
595 -351 746 -500 1363 -1120 1853 -1859 147 -221 263 -417 353 -598 65 -131
67 -135 66 -210 0 -94 -23 -150 -89 -221 -64 -69 -128 -96 -230 -96 -67 0 -89
5 -135 27 -80 39 -119 86 -205 248 -295 551 -661 1040 -1092 1460 -254 248
-545 490 -589 490 -50 0 -93 -75 -66 -116 4 -7 68 -61 143 -120 563 -448 1044
-1034 1494 -1819 53 -92 95 -168 93 -170 -2 -1 -489 -176 -1083 -389 -593
-213 -1085 -392 -1093 -399 -26 -21 -33 -56 -17 -86 15 -31 33 -41 69 -41 13
0 281 93 597 206 1326 475 1498 537 1583 567 l88 33 67 -23 c263 -90 551 78
610 355 32 152 3 243 -182 572 -317 562 -684 1039 -1163 1511 -403 395 -840
730 -1323 1012 -391 228 -504 266 -668 222z"/>
<path d="M2485 3345 c-196 -96 -299 -250 -280 -419 14 -132 92 -306 144 -324
73 -25 281 98 356 211 36 55 65 147 65 208 0 86 -73 292 -121 340 -29 29 -83
23 -164 -16z m105 -199 c23 -69 28 -164 11 -207 -15 -40 -70 -99 -128 -136
-29 -18 -56 -33 -61 -33 -16 0 -53 132 -53 189 -1 68 10 98 52 146 35 39 126
105 146 105 6 0 21 -29 33 -64z"/>
<path d="M3062 2577 c-27 -29 -42 -105 -42 -211 0 -140 35 -231 119 -309 83
-78 209 -125 348 -130 86 -3 107 12 122 84 16 76 14 220 -4 246 -20 29 -59 37
-94 19 -37 -20 -41 -32 -41 -123 l0 -75 -34 6 c-187 35 -255 105 -264 274 l-5
82 29 0 c15 0 54 -7 86 -16 54 -15 59 -15 83 0 38 25 50 58 33 92 -16 35 -47
51 -135 69 -106 23 -175 20 -201 -8z"/>
<path d="M1240 2498 c-34 -17 -97 -147 -116 -240 -45 -208 42 -366 261 -474
100 -50 150 -59 181 -34 27 23 84 154 101 233 43 206 -45 366 -259 471 -110
54 -135 60 -168 44z m121 -189 c52 -26 126 -94 146 -133 9 -17 17 -56 17 -86
1 -61 -31 -180 -48 -180 -24 0 -114 60 -153 102 -43 48 -68 123 -58 176 14 65
39 142 47 142 5 0 27 -9 49 -21z"/>
<path d="M2330 2314 c-136 -26 -302 -123 -364 -213 -30 -42 -32 -67 -11 -98
14 -19 13 -26 -10 -75 -14 -29 -28 -68 -31 -86 -5 -25 -15 -37 -45 -53 -47
-23 -54 -46 -46 -144 22 -257 213 -473 478 -541 91 -23 241 -15 331 18 186 69
315 198 386 386 23 59 26 83 27 192 0 105 -4 135 -23 191 -64 186 -203 327
-390 397 -53 19 -90 25 -172 28 -58 1 -116 0 -130 -2z"/>
</g>
</svg>
